<svg id="Layer_1" data-name="Layer 1" xmlns="http://www.w3.org/2000/svg" viewBox="0 0 189.28 140.77">
    <defs>
        <style>
            .cls-1{fill:#cb3542;}.cls-2,.cls-3{fill:none;stroke-miterlimit:10;stroke-width:3px;}.cls-2{stroke:#cb3542;}.cls-3{stroke:#fff;}.cls-4{fill:#0e0e0e;}
        </style>
    </defs>
    <title>logo</title>
    <g id="Layer_2" data-name="Layer 2">
        <g id="Layer_1-2" data-name="Layer 1-2">
            <rect class="cls-1" x="70.3" width="81.5" height="81.5"/>
            <rect class="cls-2" x="38.35" y="30.65" width="20.2" height="20.2"/>
            <rect class="cls-3" x="100.95" y="30.65" width="20.2" height="20.2"/>
            <path class="cls-4"
                  d="M0,115.42Q0,107.35,3.55,103T13.7,98.63a14.23,14.23,0,0,1,6,1.2,11.39,11.39,0,0,1,4.3,3.41,14.93,14.93,0,0,1,2.54,5.31,26.48,26.48,0,0,1,.83,6.87q0,8.07-3.58,12.43T13.7,132.22A14.35,14.35,0,0,1,7.61,131a11.19,11.19,0,0,1-4.27-3.41A15.14,15.14,0,0,1,.83,122.3,26.48,26.48,0,0,1,0,115.42Zm6.64,0a22.75,22.75,0,0,0,.42,4.5,11.6,11.6,0,0,0,1.27,3.53,6.45,6.45,0,0,0,2.19,2.31,5.91,5.91,0,0,0,3.18.83A6,6,0,0,0,18.92,124q1.84-2.63,1.85-8.53a23.17,23.17,0,0,0-.39-4.38,12.24,12.24,0,0,0-1.22-3.55A6.37,6.37,0,0,0,17,105.11a6,6,0,0,0-3.28-.85A6,6,0,0,0,8.49,107Q6.64,109.66,6.64,115.42Z"
                  transform="translate(0)"/>
            <path class="cls-4"
                  d="M31.79,108.5h4.38l.69,2.77H37a7.64,7.64,0,0,1,2.84-2.58,8.75,8.75,0,0,1,4-.83q4.34,0,6.51,2.75t2.17,8.83a19,19,0,0,1-.69,5.33,11.25,11.25,0,0,1-2,4,9,9,0,0,1-3.32,2.54,12.44,12.44,0,0,1-6.85.67,8.15,8.15,0,0,1-1.85-.67v9.46h-6Zm10.29,4.43a4,4,0,0,0-2.74.88,5.71,5.71,0,0,0-1.55,2.63V126a4.93,4.93,0,0,0,3.41,1.11,4.44,4.44,0,0,0,3.88-1.82q1.29-1.82,1.29-6a9.07,9.07,0,0,0-1-4.71,3.55,3.55,0,0,0-3.3-1.65Z"
                  transform="translate(0)"/>
            <path class="cls-4"
                  d="M75.15,129.59a11.75,11.75,0,0,1-3.76,1.87,16.47,16.47,0,0,1-5.05.76q-5.58,0-8.17-3.25t-2.58-9q0-6.09,2.91-9.13t8.17-3a12.72,12.72,0,0,1,3.41.46,8,8,0,0,1,3,1.52,7.51,7.51,0,0,1,2.08,2.86,11.23,11.23,0,0,1,.78,4.48,20.31,20.31,0,0,1-.12,2.08q-.12,1.11-.35,2.31H61.59a6.76,6.76,0,0,0,1.5,4.38q1.36,1.48,4.41,1.48a9.82,9.82,0,0,0,5.67-1.75Zm-8.58-16.93a4.2,4.2,0,0,0-3.48,1.41,7,7,0,0,0-1.36,3.76h8.58a5.81,5.81,0,0,0-.76-3.83A3.39,3.39,0,0,0,66.57,112.66Z"
                  transform="translate(0)"/>
            <path class="cls-4"
                  d="M94.25,131.57v-13.1a7.73,7.73,0,0,0-.81-4.06,3,3,0,0,0-2.75-1.25,4.32,4.32,0,0,0-2.88,1,5.52,5.52,0,0,0-1.68,2.47v15h-6V108.5h4.75l.69,3h.18a9.94,9.94,0,0,1,2.83-2.5,8.34,8.34,0,0,1,4.52-1.11,9.33,9.33,0,0,1,3,.46,5.19,5.19,0,0,1,2.26,1.52,6.93,6.93,0,0,1,1.38,2.88,18.67,18.67,0,0,1,.46,4.5V131.6Z"
                  transform="translate(0)"/>
            <path class="cls-4"
                  d="M119.35,122.9a3,3,0,0,0-1.08-2.4,12,12,0,0,0-2.72-1.68q-1.64-.76-3.55-1.57a18.13,18.13,0,0,1-3.55-2,10.09,10.09,0,0,1-2.72-2.93,8.38,8.38,0,0,1-1.08-4.48,9.81,9.81,0,0,1,.78-4.08,7.65,7.65,0,0,1,2.24-2.88,9.62,9.62,0,0,1,3.44-1.71,16.46,16.46,0,0,1,4.43-.55,27.76,27.76,0,0,1,5.31.48,13.5,13.5,0,0,1,4.11,1.41l-2,5.31a11.13,11.13,0,0,0-3-1.18,17.3,17.3,0,0,0-4.38-.53,5.61,5.61,0,0,0-3.39.88,2.79,2.79,0,0,0-1.18,2.35,2.9,2.9,0,0,0,1.08,2.31,12.5,12.5,0,0,0,2.72,1.71q1.64.79,3.55,1.61a19.13,19.13,0,0,1,3.55,2,10.24,10.24,0,0,1,2.72,2.91,8,8,0,0,1,1.08,4.31,10.65,10.65,0,0,1-.85,4.45,8.45,8.45,0,0,1-2.4,3.11,10.13,10.13,0,0,1-3.74,1.85,18.25,18.25,0,0,1-4.82.6,25.7,25.7,0,0,1-6.09-.65,18.57,18.57,0,0,1-3.88-1.29l2-5.4a12.42,12.42,0,0,0,1.31.6,16.74,16.74,0,0,0,1.82.6,20.87,20.87,0,0,0,2.15.46,14.37,14.37,0,0,0,2.33.18,8.12,8.12,0,0,0,4.31-.95A3.17,3.17,0,0,0,119.35,122.9Z"
                  transform="translate(0)"/>
            <path class="cls-4"
                  d="M148.18,129.59a11.75,11.75,0,0,1-3.76,1.87,16.47,16.47,0,0,1-5.05.76q-5.58,0-8.17-3.25t-2.58-9q0-6.09,2.91-9.13t8.17-3a12.72,12.72,0,0,1,3.41.46,8,8,0,0,1,3,1.52,7.51,7.51,0,0,1,2.08,2.86,11.23,11.23,0,0,1,.78,4.48,20.31,20.31,0,0,1-.12,2.08q-.12,1.11-.35,2.31H134.62a6.76,6.76,0,0,0,1.5,4.38q1.36,1.48,4.41,1.48a9.82,9.82,0,0,0,5.67-1.75Zm-8.58-16.93a4.2,4.2,0,0,0-3.48,1.41,7,7,0,0,0-1.36,3.76h8.58a5.81,5.81,0,0,0-.76-3.83,3.39,3.39,0,0,0-3-1.34Z"
                  transform="translate(0)"/>
            <path class="cls-4"
                  d="M153,109.84a19.74,19.74,0,0,1,4.38-1.31,28.26,28.26,0,0,1,5.31-.48,12,12,0,0,1,4,.58,5.78,5.78,0,0,1,3.9,4.18,12.94,12.94,0,0,1,.39,3.32q0,2-.14,4.08t-.16,4q0,2,.12,3.85a14.57,14.57,0,0,0,.69,3.53H166.6l-1-3.18h-.23a8.21,8.21,0,0,1-2.56,2.47,7.77,7.77,0,0,1-4.22,1,8.23,8.23,0,0,1-2.91-.48,6.21,6.21,0,0,1-3.65-3.51,7.1,7.1,0,0,1-.51-2.75,6.42,6.42,0,0,1,.95-3.58,6.83,6.83,0,0,1,2.72-2.35,13.51,13.51,0,0,1,4.24-1.25,30.09,30.09,0,0,1,5.51-.21,6,6,0,0,0-.37-3.71q-.57-1-3-1a21.07,21.07,0,0,0-3.81.37,14,14,0,0,0-3.3,1ZM160.64,127a4.61,4.61,0,0,0,2.86-.81,5.64,5.64,0,0,0,1.57-1.73v-3a16.5,16.5,0,0,0-2.75,0,10.06,10.06,0,0,0-2.33.42,3.92,3.92,0,0,0-1.61.92,2.06,2.06,0,0,0-.6,1.52,2.62,2.62,0,0,0,.76,2A2.94,2.94,0,0,0,160.64,127Z"
                  transform="translate(0)"/>
            <path class="cls-4"
                  d="M173.65,108.5h3.18v-4.34l6-1.71v6h5.63v5.07h-5.63v8.86a8.79,8.79,0,0,0,.48,3.44,1.82,1.82,0,0,0,1.82,1,6,6,0,0,0,1.59-.18,10.78,10.78,0,0,0,1.5-.55l1.06,4.61a15.18,15.18,0,0,1-2.91,1,13.84,13.84,0,0,1-3.37.42,6.06,6.06,0,0,1-4.68-1.64q-1.5-1.64-1.5-5.37V113.58h-3.18Z"
                  transform="translate(0)"/>
        </g>
    </g>
</svg>